<svg width="107,67" height="24" viewBox="0 0 498 111" fill="none" xmlns="http://www.w3.org/2000/svg">
<path d="M16.264 110.656C11.784 110.656 6.408 110.144 0.52 108.608L1.8 101.056C7.432 102.208 16.392 103.872 23.688 103.872C34.44 103.872 39.304 99.648 43.144 83.264C45.448 73.408 48.648 60.48 51.592 49.728L49.288 49.088C34.952 77.888 25.736 88.256 18.952 88.256C13.576 88.256 8.456 83.136 8.456 73.408C8.456 49.728 28.04 26.688 62.344 26.56C59.272 36.8 53.64 60.992 50.184 80.192C46.856 99.392 37.384 110.656 16.264 110.656ZM20.104 81.216C26.504 81.216 37.128 68.544 54.92 33.472C29.064 36.544 13.704 58.176 13.704 73.28C13.704 78.784 16.008 81.216 20.104 81.216ZM107.234 33.472C98.402 33.472 89.442 41.92 85.09 53.312C106.338 48.576 116.322 42.432 116.322 38.464C116.322 36.032 113.506 33.472 107.234 33.472ZM95.202 89.28C84.962 89.28 76.77 80.192 76.77 65.344C76.77 46.016 92.13 26.176 107.746 26.176C116.834 26.176 122.21 32.96 122.21 38.208C122.21 45.376 108.77 52.032 84.194 56C83.042 59.712 82.402 63.808 82.402 68.032C82.402 76.992 89.186 81.728 94.434 81.728C101.858 81.728 110.178 75.2 115.17 66.496L117.858 69.184C112.61 79.68 104.034 89.28 95.202 89.28ZM155.016 10.432C155.016 9.15199 153.608 8.128 152.2 8.128C150.664 8.128 147.208 9.408 143.368 11.584L141.064 8.384C145.544 4.672 150.664 0.959999 154.376 0.959999C157.704 0.959999 160.904 4.92799 160.904 9.02399C160.904 20.032 146.184 63.808 146.184 74.304C146.184 78.272 147.208 81.216 150.152 81.216C152.584 81.216 154.888 78.4 160.136 71.104L162.696 73.92C155.656 84.544 151.176 89.28 146.184 89.28C141.448 89.28 138.248 84.032 138.248 78.144C138.248 64.448 155.016 20.16 155.016 10.432ZM218.629 89.28C214.533 89.28 211.461 83.776 211.461 77.504C211.461 72.256 214.917 60.096 218.373 49.6L216.453 49.088C201.861 78.4 192.901 89.408 186.117 89.408C180.741 89.408 175.621 83.904 175.621 73.408C175.621 49.728 195.205 26.688 229.509 26.56C226.565 35.648 218.117 63.936 218.117 73.28C218.117 77.888 219.141 81.216 222.341 81.216C224.773 81.216 227.077 78.4 232.197 71.104L234.885 73.92C227.845 84.544 223.621 89.28 218.629 89.28ZM187.269 81.216C193.669 81.216 204.293 68.544 222.085 33.472C195.589 36.544 180.869 58.688 180.869 73.28C180.869 78.784 183.173 81.216 187.269 81.216ZM254.064 30.4C263.28 28.096 263.536 26.56 268.784 11.712L272.624 11.968C271.856 15.296 270.32 20.928 268.528 27.456H288.88L287.216 34.624C280.944 34.496 273.776 34.496 266.736 34.496C262.768 49.6 258.544 67.008 258.544 73.024C258.544 77.632 260.208 80.96 263.28 80.96C267.376 80.96 272.112 75.712 278.896 64.832L281.712 66.752C274.032 82.24 266.864 89.28 260.208 89.28C255.472 89.28 251.376 84.928 251.376 77.248C251.376 68.928 257.392 48.448 262 34.496C259.312 34.496 256.624 34.496 254.064 34.496V30.4ZM330.454 33.472C321.622 33.472 312.662 41.92 308.31 53.312C329.558 48.576 339.542 42.432 339.542 38.464C339.542 36.032 336.726 33.472 330.454 33.472ZM318.422 89.28C308.182 89.28 299.99 80.192 299.99 65.344C299.99 46.016 315.35 26.176 330.966 26.176C340.054 26.176 345.43 32.96 345.43 38.208C345.43 45.376 331.99 52.032 307.414 56C306.262 59.712 305.622 63.808 305.622 68.032C305.622 76.992 312.406 81.728 317.654 81.728C325.078 81.728 333.398 75.2 338.39 66.496L341.078 69.184C335.83 79.68 327.254 89.28 318.422 89.28ZM378.236 10.432C378.236 9.15199 376.828 8.128 375.42 8.128C373.884 8.128 370.428 9.408 366.588 11.584L364.284 8.384C368.764 4.672 373.884 0.959999 377.596 0.959999C380.924 0.959999 384.124 4.92799 384.124 9.02399C384.124 20.032 369.404 63.808 369.404 74.304C369.404 78.272 370.428 81.216 373.372 81.216C375.804 81.216 378.108 78.4 383.356 71.104L385.916 73.92C378.876 84.544 374.396 89.28 369.404 89.28C364.668 89.28 361.468 84.032 361.468 78.144C361.468 64.448 378.236 20.16 378.236 10.432ZM418.041 10.432C418.041 9.15199 416.633 8.128 415.225 8.128C413.689 8.128 410.233 9.408 406.393 11.584L404.089 8.384C408.569 4.672 413.689 0.959999 417.401 0.959999C420.729 0.959999 423.929 4.92799 423.929 9.02399C423.929 20.032 409.209 63.808 409.209 74.304C409.209 78.272 410.233 81.216 413.177 81.216C415.609 81.216 417.913 78.4 423.161 71.104L425.721 73.92C418.681 84.544 414.201 89.28 409.209 89.28C404.473 89.28 401.273 84.032 401.273 78.144C401.273 64.448 418.041 20.16 418.041 10.432ZM481.654 89.28C477.558 89.28 474.486 83.776 474.486 77.504C474.486 72.256 477.942 60.096 481.398 49.6L479.478 49.088C464.886 78.4 455.926 89.408 449.142 89.408C443.766 89.408 438.646 83.904 438.646 73.408C438.646 49.728 458.23 26.688 492.534 26.56C489.59 35.648 481.142 63.936 481.142 73.28C481.142 77.888 482.166 81.216 485.366 81.216C487.798 81.216 490.102 78.4 495.222 71.104L497.91 73.92C490.87 84.544 486.646 89.28 481.654 89.28ZM450.294 81.216C456.694 81.216 467.318 68.544 485.11 33.472C458.614 36.544 443.894 58.688 443.894 73.28C443.894 78.784 446.198 81.216 450.294 81.216Z" fill="white"/>
</svg>
